<svg xmlns="http://www.w3.org/2000/svg" width="20.848" height="20.848" viewBox="0 0 20.848 20.848">
  <g id="Group_5618" data-name="Group 5618" transform="translate(0 0)">
    <path id="Path_8408" data-name="Path 8408" d="M465.315,224.479a10.424,10.424,0,1,1,10.424-10.424A10.436,10.436,0,0,1,465.315,224.479Zm0-19.857a9.434,9.434,0,1,0,9.433,9.434A9.444,9.444,0,0,0,465.315,204.621Zm3.514,5.2a.771.771,0,1,0,.772.772A.771.771,0,0,0,468.829,209.825Zm-3.429.989a3.24,3.24,0,1,0,3.24,3.24A3.244,3.244,0,0,0,465.4,210.815Zm0,5.316a2.076,2.076,0,1,1,2.076-2.076A2.078,2.078,0,0,1,465.4,216.131Zm6.538-4.769a3.952,3.952,0,0,0-3.952-3.952H462.77a3.952,3.952,0,0,0-3.952,3.952v5.216a3.952,3.952,0,0,0,3.952,3.952h5.216a3.952,3.952,0,0,0,3.952-3.952Zm-1.238,5.216a2.714,2.714,0,0,1-2.715,2.714H462.77a2.714,2.714,0,0,1-2.714-2.714v-5.216a2.714,2.714,0,0,1,2.714-2.714h5.216a2.714,2.714,0,0,1,2.715,2.714Z" transform="translate(-454.891 -203.631)" fill="#172b4d"/>
  </g>
</svg>
