<svg xmlns="http://www.w3.org/2000/svg" width="36.004" height="47" viewBox="0 0 36.004 47">
  <g id="noun-startup-38246" transform="translate(-117.102 -2.821)">
    <path id="Path_76115" data-name="Path 76115" d="M153.106,24.816V18.589a1.283,1.283,0,0,0-.011-.164c0-.01,0-.02-.005-.03a1.282,1.282,0,0,0-.029-.138l-.007-.024a1.126,1.126,0,0,0-.055-.149c0-.01-.009-.02-.015-.03s-.022-.048-.035-.072-.016-.025-.025-.038a.41.41,0,0,0-.024-.039,1.3,1.3,0,0,0-.082-.113l-.01-.012a1.328,1.328,0,0,0-.111-.114l-.027-.023a1.089,1.089,0,0,0-.1-.081l-.027-.019a1.164,1.164,0,0,0-.136-.078l-.01-.006-8.312-3.993a8.519,8.519,0,0,1-1.832,1.913l6.859,3.294-12.1,6.706a31.059,31.059,0,0,0-.175-9.352c3.913-1.088,7.289-4.282,7.706-8.358-5.429-.387-7.144.741-8.517,5.832,0-10.182-9.435-10.679-9.435-10.679-1.977,6.863,1.4,11.205,6.74,13.088,0,0,.4.1.957.176a28.263,28.263,0,0,1,.062,9.934L121.1,18.671l7.163-3.44a8.342,8.342,0,0,1-1.763-1.946l-8.685,4.171-.008,0a1.4,1.4,0,0,0-.14.08l-.022.015a1.354,1.354,0,0,0-.109.086l-.024.021a1.2,1.2,0,0,0-.112.115l-.009.012a1.242,1.242,0,0,0-.083.113l-.025.04c-.008.013-.017.025-.024.038s-.023.047-.034.07l-.016.033a1.256,1.256,0,0,0-.054.148l-.007.027a1.354,1.354,0,0,0-.029.134c0,.011,0,.022,0,.033a1.254,1.254,0,0,0-.011.163V39.277a1.26,1.26,0,0,0,.648,1.1l16.744,9.285h0a1.124,1.124,0,0,0,.136.065l.026.01c.037.013.075.026.113.037l.039.01c.036.009.073.015.11.021l.037.006a1.249,1.249,0,0,0,.146.009,1.274,1.274,0,0,0,.146-.009l.037-.006c.037-.006.074-.012.11-.021l.038-.01c.039-.011.077-.024.114-.037l.026-.01a1.163,1.163,0,0,0,.136-.065h0l16.744-9.285a1.259,1.259,0,0,0,.648-1.1V24.826a.037.037,0,0,1,0-.01Zm-33.488-4.088,14.227,7.889V31.98l-14.227-7.889Zm16.744,7.889,14.226-7.889V24.09L136.362,31.98Zm-16.744-1.649,14.227,7.89V46.425l-14.227-7.889Zm16.744,19.457V34.858l14.226-7.89V38.535Z" transform="translate(0)" fill="#172b4d"/>
    <path id="Path_76116" data-name="Path 76116" d="M404.887,390.273c-1.256-5.007-5.717-3.827-5.717-3.827S399.17,390.57,404.887,390.273Z" transform="translate(-270.994 -368.448)" fill="#172b4d"/>
  </g>
</svg>
