<svg xmlns="http://www.w3.org/2000/svg" width="47.344" height="47.287" viewBox="0 0 47.344 47.287">
  <g id="noun-loan-5846560" transform="translate(-3.412 -3.472)">
    <path id="Path_408206" data-name="Path 408206" d="M4.186,37.48a3.233,3.233,0,0,0,1.673,4.011L18.183,47.33a.826.826,0,0,0,.707-1.492L6.565,40a1.6,1.6,0,0,1,1.127-2.97l9.142,2.656a3.68,3.68,0,0,0,3.643,3.252h8.547a.826.826,0,0,0,0-1.652H20.478a2.036,2.036,0,0,1,0-4.071h5.971a4.262,4.262,0,0,0,2.285-.665l2.952-1.874a6.038,6.038,0,0,1,3.242-.942h6.858a.872.872,0,0,0,.828-.787.828.828,0,0,1,.827-.79H48.6V44.577H43.441a.817.817,0,0,1-.826-.826V37.036a.826.826,0,0,0-1.652,0v5.97a4.031,4.031,0,0,0-2.325.467L32.26,47.191a10.329,10.329,0,0,1-9.637.413.826.826,0,0,0-1.1.392c-.812,1.675,4.521,2.3,5.53,2.258a11.967,11.967,0,0,0,6.04-1.636L39.471,44.9a3.152,3.152,0,0,1,1.67-.243,2.477,2.477,0,0,0,2.3,1.571H48.6a1.654,1.654,0,0,0,1.652-1.652V32.154A1.654,1.654,0,0,0,48.6,30.5H43.441a2.469,2.469,0,0,0-2.3,1.578H35.428l-.911-9.6c-.149-.837-.032-2.437-1.257-2.254-1.125.334-.374,1.589-.387,2.411l.9,9.536c-1.953.164-4.3,1.994-5.929,2.983a2.614,2.614,0,0,1-1.4.407H20.478a3.682,3.682,0,0,0-3.46,2.456l-6.78-1.97a4.251,4.251,0,0,1-.772-2.841l.991-10.572a11.225,11.225,0,0,1,7.831-9.684h6.775a11.289,11.289,0,0,1,6.113,4.7.826.826,0,1,0,1.394-.886,12.945,12.945,0,0,0-5.827-4.954,6.681,6.681,0,0,0,1.684-4.456V4.821c-.1-1.79-3.858-.224-4.148-.035a5.135,5.135,0,0,1-2.61.63,5.133,5.133,0,0,1-2.608-.629A6.748,6.748,0,0,0,15.738,4a.826.826,0,0,0-.826.826V7.357a6.762,6.762,0,0,0,1.7,4.458,12.863,12.863,0,0,0-7.8,10.663L7.819,33.053a5.927,5.927,0,0,0,.269,2.374,3.241,3.241,0,0,0-3.9,2.053ZM16.564,5.694a5.222,5.222,0,0,1,1.782.582,6.748,6.748,0,0,0,3.323.792,6.754,6.754,0,0,0,3.323-.792,5.222,5.222,0,0,1,1.782-.582V7.357A5.068,5.068,0,0,1,24.9,11.3H18.43a5.107,5.107,0,0,1-1.866-3.938V5.694Z" transform="translate(0)" fill="#172b4d" stroke="#172b4d" stroke-width="1"/>
    <path id="Path_408207" data-name="Path 408207" d="M55.024,41.143a.826.826,0,0,0-1.652,0A.826.826,0,0,0,55.024,41.143Z" transform="translate(-8.59 -6.326)" fill="#172b4d" stroke="#172b4d" stroke-width="1"/>
    <g id="Group_142862" data-name="Group 142862" transform="translate(18.1 18.699)">
      <g id="Group_142855" data-name="Group 142855" transform="translate(0 0.003)">
        <g id="Group_142854" data-name="Group 142854" transform="translate(0 0)">
          <path id="Path_408196" data-name="Path 408196" d="M203.386,76.284l-.521-.485-1.252-1.165-1.51-1.4-1.31-1.218c-.212-.2-.421-.4-.637-.593l-.009-.009c.07.169.14.338.209.507v-.409l-.716.716h.835c.286,0,.575.01.862,0a3.765,3.765,0,0,0,1.884-.591,3.829,3.829,0,0,0,1.3-1.4,3.742,3.742,0,0,0-.153-3.787,3.766,3.766,0,0,0-3.179-1.738h-1.907a.745.745,0,0,0-.507.209.719.719,0,0,0,0,1.013.742.742,0,0,0,.507.209h1.809a3.97,3.97,0,0,1,.505.026l-.19-.026a3.083,3.083,0,0,1,.782.212l-.17-.072a3.152,3.152,0,0,1,.684.4l-.145-.112a3.153,3.153,0,0,1,.544.544l-.112-.145a3.151,3.151,0,0,1,.4.684c-.024-.057-.049-.115-.072-.17a3.083,3.083,0,0,1,.212.782l-.026-.19a3.075,3.075,0,0,1,0,.794l.026-.19a3.083,3.083,0,0,1-.212.782c.024-.057.049-.115.072-.17a3.151,3.151,0,0,1-.4.684l.112-.145a3.153,3.153,0,0,1-.544.544l.145-.112a3.151,3.151,0,0,1-.684.4l.17-.072a3.085,3.085,0,0,1-.782.212l.19-.026a5.966,5.966,0,0,1-.767.026H197.64a.726.726,0,0,0-.716.716c0,.133,0,.266,0,.4a.755.755,0,0,0,.238.543l.275.255,1.2,1.114,1.589,1.479,1.431,1.331c.236.22.471.442.709.66l.01.009a.752.752,0,0,0,.507.209.73.73,0,0,0,.507-.209.721.721,0,0,0,.209-.507.728.728,0,0,0-.21-.507Z" transform="translate(-196.562 -64.7)" fill="#172b4d" stroke="#172b4d" stroke-width="0.3"/>
        </g>
      </g>
      <g id="Group_142857" data-name="Group 142857" transform="translate(0.001 0)">
        <g id="Group_142856" data-name="Group 142856">
          <path id="Path_408197" data-name="Path 408197" d="M197.378,65.9h6.659c.308,0,.615,0,.922,0h.013a.745.745,0,0,0,.507-.209.719.719,0,0,0,0-1.013.742.742,0,0,0-.507-.209h-6.659c-.308,0-.616,0-.922,0h-.013a.745.745,0,0,0-.507.209.719.719,0,0,0,0,1.013.745.745,0,0,0,.507.209Z" transform="translate(-196.662 -64.467)" fill="#172b4d" stroke="#172b4d" stroke-width="0.3"/>
        </g>
      </g>
      <g id="Group_142859" data-name="Group 142859" transform="translate(0.001 3.047)">
        <g id="Group_142858" data-name="Group 142858" transform="translate(0 0)">
          <path id="Path_408198" data-name="Path 408198" d="M197.378,278.8h6.659c.308,0,.615,0,.922,0h.013a.745.745,0,0,0,.507-.209.719.719,0,0,0,0-1.013.743.743,0,0,0-.507-.209h-6.659c-.308,0-.616,0-.922,0h-.013a.745.745,0,0,0-.507.209.719.719,0,0,0,0,1.013.752.752,0,0,0,.507.209Z" transform="translate(-196.662 -277.367)" fill="#172b4d" stroke="#172b4d" stroke-width="0.3"/>
        </g>
      </g>
    </g>
  </g>
</svg>
