<svg xmlns="http://www.w3.org/2000/svg" width="55.627" height="46.955" viewBox="0 0 55.627 46.955">
  <g id="noun-gold-2195242" transform="translate(18.996 0.955)">
    <g id="Group_142853" data-name="Group 142853" transform="translate(-18.996 -0.955)">
      <path id="Path_408189" data-name="Path 408189" d="M20.53,15.579l2.691,1.343a2.905,2.905,0,0,1,1.286,1.285L25.851,20.9a.959.959,0,0,0,1.717,0l1.343-2.691a2.905,2.905,0,0,1,1.295-1.286L32.9,15.579a.959.959,0,0,0,0-1.717l-2.691-1.343a2.909,2.909,0,0,1-1.286-1.3L27.577,8.532a1,1,0,0,0-1.717,0l-1.343,2.691a2.905,2.905,0,0,1-1.295,1.286L20.53,13.853a.959.959,0,0,0,0,1.717Zm3.549-1.343a4.827,4.827,0,0,0,2.144-2.144l.491-.987.488.977h0a4.827,4.827,0,0,0,2.144,2.144l.978.489-.978.489A4.827,4.827,0,0,0,27.2,17.349l-.488.977-.489-.978A4.827,4.827,0,0,0,24.081,15.2l-.977-.488Z" transform="translate(-3.699 -8.045)" fill="#172b4d"/>
      <path id="Path_408190" data-name="Path 408190" d="M49.531,22.62l2.244,1.121a2.253,2.253,0,0,1,1,1L53.9,26.986a.959.959,0,0,0,1.717,0l1.121-2.244a2.253,2.253,0,0,1,1-1L59.98,22.62a.959.959,0,0,0,0-1.717l-2.244-1.121a2.253,2.253,0,0,1-1-1l-1.116-2.249a1,1,0,0,0-1.717,0L52.78,18.777a2.253,2.253,0,0,1-1,1L49.535,20.9a.959.959,0,0,0,0,1.717Zm3.1-1.122a4.188,4.188,0,0,0,1.859-1.859l.264-.533.264.528a4.188,4.188,0,0,0,1.859,1.859l.528.264-.528.264a4.188,4.188,0,0,0-1.859,1.859l-.264.528-.264-.528a4.188,4.188,0,0,0-1.859-1.859l-.528-.264Z" transform="translate(-4.884 -8.371)" fill="#172b4d"/>
      <path id="Path_408191" data-name="Path 408191" d="M4.531,32.62l2.244,1.121a2.253,2.253,0,0,1,1,1L8.9,36.986a.959.959,0,0,0,1.717,0l1.121-2.244a2.253,2.253,0,0,1,1-1L14.98,32.62a.959.959,0,0,0,0-1.717l-2.244-1.121a2.253,2.253,0,0,1-1-1l-1.116-2.249a1,1,0,0,0-1.717,0L7.78,28.777a2.253,2.253,0,0,1-1,1L4.535,30.9a.959.959,0,0,0,0,1.717Zm3.1-1.122a4.188,4.188,0,0,0,1.859-1.859l.264-.533.264.528a4.188,4.188,0,0,0,1.859,1.859l.528.264-.528.264a4.188,4.188,0,0,0-1.859,1.859l-.264.528-.264-.528A4.188,4.188,0,0,0,7.632,32.02L7.1,31.757Z" transform="translate(-3.045 -8.78)" fill="#172b4d"/>
      <path id="Path_408192" data-name="Path 408192" d="M55.657,38.877a.986.986,0,0,0-.07-.086.944.944,0,0,0-.158-.192,1.063,1.063,0,0,0-.128-.086.959.959,0,0,0-.208-.1c-.023-.008-.039-.026-.063-.032a.987.987,0,0,0-.106,0,.9.9,0,0,0-.129-.032H50.881l1.593-1.139a.959.959,0,0,0,.3-1.209L49.9,30.244c-.01-.018-.028-.029-.037-.046a.943.943,0,0,0-.186-.23c-.018-.016-.033-.036-.052-.052a.951.951,0,0,0-.324-.161c-.011,0-.017-.011-.028-.013a.528.528,0,0,0-.068,0,.917.917,0,0,0-.163-.028H45.19a.933.933,0,0,0-.088-.429L42.224,23.53c-.01-.018-.028-.029-.037-.046a.943.943,0,0,0-.186-.23c-.018-.016-.033-.036-.052-.052a.952.952,0,0,0-.324-.161c-.011,0-.017-.011-.028-.013a.528.528,0,0,0-.068,0A.917.917,0,0,0,41.366,23H32.734a.953.953,0,0,0-.557.179L18.748,32.771h0a.959.959,0,0,0-.214.212.941.941,0,0,0-.119.228c0,.013-.014.023-.018.036h0l-1.04,3.119L13,39.483h0a.959.959,0,0,0-.214.212.926.926,0,0,0-.126.243c0,.008-.009.013-.012.022h0l-1.289,3.868a.664.664,0,0,0-.084.037L5.324,48.113h0a.959.959,0,0,0-.214.212.941.941,0,0,0-.119.228c0,.013-.014.023-.018.036h0L3.055,54.345a.959.959,0,0,0,.9,1.266H44.243a.949.949,0,0,0,.27-.042c.026-.008.049-.02.074-.03a.948.948,0,0,0,.174-.087l.039-.02L58.229,45.84a.959.959,0,0,0,.3-1.209ZM51.8,40.265,41.059,47.938H35.515l1.225-.959h1.749a.949.949,0,0,0,.27-.042c.026-.008.049-.02.074-.03a.948.948,0,0,0,.174-.087l.039-.02L48.2,40.265ZM25.061,46.979h3.913l-1.343.959H22.3l1.343-.959Zm-1.654-6.41.416-.3.006-.007h2.139L24.883,43.52Zm2.985,4.492,1.279-3.837h7.348l1.918,3.837Zm24.3-8.936L38.844,44.587l-2.008-4.018,11.847-8.463Zm-4.646-4.492L35.3,39.305H32.465l10.742-7.673ZM43.02,29.41,31.171,37.873l-2.008-4.018L41.01,25.392Zm-9.979-4.492h5.333L27.631,32.591H22.3ZM20,34.51h7.348l1.918,3.837H18.719Zm-5.755,6.714h7.348l1.918,3.837H12.964ZM10.83,46.537c.009.014.013.03.023.043a.959.959,0,0,0,.78.4h3.913l-1.343.959H8.87ZM5.291,53.693l1.279-3.837h7.348l1.918,3.837Zm13.117-5.121c0,.008-.009.013-.012.022h0L17.211,52.15,15.736,49.2l2.832-2.025a.948.948,0,0,0,.184-.2h1.589l-1.593,1.139h0a.959.959,0,0,0-.214.212.925.925,0,0,0-.127.243Zm.311,5.121L20,49.856h7.348l1.918,3.837Zm13.344-5.467a.884.884,0,0,0-.112.12.817.817,0,0,0-.076.147.925.925,0,0,0-.053.1l-1.186,3.558L29.16,49.2l2.014-1.439h0l1.1-.784h1.355l-1.486,1.163a.908.908,0,0,0-.081.083Zm.082,5.467,1.279-3.837H40.77l1.918,3.837ZM44.6,53.219,42.588,49.2l11.847-8.463,2.009,4.018Z" transform="translate(-3.004 -8.656)" fill="#172b4d"/>
    </g>
  </g>
</svg>
