<svg xmlns="http://www.w3.org/2000/svg" width="43.265" height="50.77" viewBox="0 0 43.265 50.77">
  <g id="noun-client-satisfied-1057458" transform="translate(-21.358 -24.263)">
    <path id="Path_408210" data-name="Path 408210" d="M49.845,26.733a4.835,4.835,0,0,1,4.829,4.829c0,3.5-2.121,6.245-4.829,6.245s-4.829-2.743-4.829-6.245a4.835,4.835,0,0,1,4.829-4.829m0-1.97a6.8,6.8,0,0,0-6.8,6.8c0,4.732,3.044,8.215,6.8,8.215s6.8-3.513,6.8-8.215a6.8,6.8,0,0,0-6.8-6.8Z" transform="translate(-6.389)" fill="#172b4d" stroke="#172b4d" stroke-width="1"/>
    <path id="Path_408211" data-name="Path 408211" d="M42.819,43.592c.93,1.61.61,1.057,2.507,4.342a1.972,1.972,0,0,0,3.412,0l.962-1.666.962,1.666a1.972,1.972,0,0,0,3.412,0l2.507-4.342a12.933,12.933,0,0,1,7.163,7.735H35.656a12.933,12.933,0,0,1,7.163-7.735m12.55-1.839-3,5.2-1.63-2.824c.111-.193.723-1.253.849-1.47a.383.383,0,0,0-.332-.575H48.148a.383.383,0,0,0-.332.575l.848,1.47-1.63,2.824-3-5.2a.838.838,0,0,0-1.015-.373,14.934,14.934,0,0,0-9.65,10.891.846.846,0,0,0,.821,1.028H65.216a.846.846,0,0,0,.821-1.028,14.936,14.936,0,0,0-9.65-10.891A.843.843,0,0,0,55.37,41.753Z" transform="translate(-6.245 -0.246)" fill="#172b4d" stroke="#172b4d" stroke-width="1"/>
    <path id="Path_408212" data-name="Path 408212" d="M53.352,74.567,49.816,72l-3.563,2.568a1.994,1.994,0,0,1-3.069-2.23l1.351-4.156-3.544-2.595a1.994,1.994,0,0,1,1.171-3.608h4.371l1.373-4.173a2,2,0,0,1,3.794,0h0l1.351,4.156,4.393.017a1.994,1.994,0,0,1,1.171,3.608l-3.536,2.568,1.342,4.183A1.994,1.994,0,0,1,53.352,74.567ZM50.975,70.4l3.536,2.568L53.2,68.79a1.991,1.991,0,0,1,.724-2.229l3.536-2.569-4.384-.043a1.99,1.99,0,0,1-1.9-1.378l-1.351-4.155a.058.058,0,0,0-.008-.018l-1.388,4.174a1.988,1.988,0,0,1-1.9,1.377H42.162l3.522,2.612a1.989,1.989,0,0,1,.724,2.228l-1.351,4.157L48.629,70.4A1.993,1.993,0,0,1,50.975,70.4Z" transform="translate(4.654 -0.471)" fill="#172b4d" stroke="#172b4d" stroke-width="1"/>
    <path id="Path_408213" data-name="Path 408213" d="M24.075,74.567,20.539,72l-3.563,2.568a2,2,0,0,1-3.069-2.23l1.351-4.156-3.544-2.595a1.994,1.994,0,0,1,1.171-3.608h4.371l1.373-4.173a2,2,0,0,1,3.794,0h0l1.351,4.156,4.393.017a1.994,1.994,0,0,1,1.171,3.608L25.8,68.154l1.342,4.183A2,2,0,0,1,24.075,74.567ZM21.7,70.4l3.536,2.568L23.919,68.79a1.991,1.991,0,0,1,.724-2.229l3.536-2.569L23.8,63.948a1.99,1.99,0,0,1-1.9-1.378l-1.351-4.155a.058.058,0,0,0-.008-.018l-1.388,4.174a1.988,1.988,0,0,1-1.9,1.377H12.885l3.522,2.612a1.989,1.989,0,0,1,.724,2.228L15.78,72.946,19.352,70.4A1.993,1.993,0,0,1,21.7,70.4Z" transform="translate(11 -0.471)" fill="#172b4d" stroke="#172b4d" stroke-width="1"/>
  </g>
</svg>
