<svg xmlns="http://www.w3.org/2000/svg" width="65.797" height="56.638" viewBox="0 0 65.797 56.638">
  <g id="noun-service-5848869" transform="translate(-133.743 -81.748)">
    <path id="Path_408208" data-name="Path 408208" d="M45.726,23.563a5.309,5.309,0,1,1-5.309,5.309A5.309,5.309,0,0,1,45.726,23.563Zm0,13.7a8.392,8.392,0,1,0-8.392-8.392A8.392,8.392,0,0,0,45.726,37.265Zm18.85,2.551L44.177,56.1a6.547,6.547,0,0,1-6.153,1.209c-2.426-.712-4.969-1.462-7.556-2.237a12.4,12.4,0,0,0-7.619-.4l-6.9-10.935c3.642-3.763,8.5-4.657,14.835-2.732a1.555,1.555,0,0,0,.449.066h13.29a1.6,1.6,0,0,1,1.212,2.644l-.886.524a1.6,1.6,0,0,1-.325.034H35.094a1.542,1.542,0,1,0,0,3.084h9.427a4.667,4.667,0,0,0,3.095-1.169l14.822-8.769a1.833,1.833,0,0,1,2.417.153,1.617,1.617,0,0,1-.278,2.256Zm-48.4,21.9,5.349-3.375-10-15.858L6.17,45.86l10,15.858Zm12.51-31.037,2.769.672a1.543,1.543,0,0,1,1.125,1.1A13.512,13.512,0,0,0,33.9,35.641a1.545,1.545,0,0,1-.021,1.57l-.471.774H44.521a4.692,4.692,0,0,1,4.586,3.727L57.4,36.8a1.541,1.541,0,0,1,.146-1.165,13.514,13.514,0,0,0,1.323-3.192A1.543,1.543,0,0,1,60,31.35l2.77-.672V27.061L60,26.388a1.54,1.54,0,0,1-1.124-1.1A13.52,13.52,0,0,0,57.548,22.1a1.545,1.545,0,0,1,.021-1.568L59.052,18.1l-2.558-2.558L54.06,17.021a1.543,1.543,0,0,1-1.57.02,13.484,13.484,0,0,0-3.19-1.313A1.545,1.545,0,0,1,48.2,14.6l-.673-2.77H43.917l-.673,2.77a1.543,1.543,0,0,1-1.1,1.124,13.519,13.519,0,0,0-3.191,1.315,1.541,1.541,0,0,1-1.569-.02l-2.434-1.483L32.4,18.1l1.482,2.434A1.542,1.542,0,0,1,33.9,22.1a13.519,13.519,0,0,0-1.323,3.193,1.539,1.539,0,0,1-1.125,1.1l-2.769.673V30.68Zm32.791,3.755c.034-.1.073-.2.1-.3l3.09-.75a1.543,1.543,0,0,0,1.178-1.5V25.851a1.543,1.543,0,0,0-1.178-1.5l-3.09-.751a16.57,16.57,0,0,0-.919-2.217l1.654-2.716a1.542,1.542,0,0,0-.226-1.891l-4.268-4.272a1.543,1.543,0,0,0-1.892-.227l-2.717,1.654a16.922,16.922,0,0,0-2.217-.919l-.751-3.09a1.541,1.541,0,0,0-1.5-1.177H42.7a1.542,1.542,0,0,0-1.5,1.177l-.751,3.09a16.963,16.963,0,0,0-2.22.919l-2.713-1.654a1.542,1.542,0,0,0-1.891.227L29.36,16.778a1.54,1.54,0,0,0-.227,1.891l1.654,2.716a16.662,16.662,0,0,0-.918,2.217l-3.09.749a1.544,1.544,0,0,0-1.178,1.5v6.041a1.544,1.544,0,0,0,1.178,1.5l3.09.755a16.719,16.719,0,0,0,.918,2.217L30.032,37.6c-6.412-1.551-11.708-.39-15.766,3.456l-.96-1.521a1.54,1.54,0,0,0-2.127-.48l-7.959,5.02A1.541,1.541,0,0,0,2.741,46.2L14.39,64.667a1.539,1.539,0,0,0,2.126.48l7.956-5.02A1.54,1.54,0,0,0,24.953,58l-.365-.577A10.126,10.126,0,0,1,29.5,58l.06.019c2.6.776,5.159,1.535,7.6,2.249a10.178,10.178,0,0,0,2.872.423A9.639,9.639,0,0,0,46.1,58.508L66.5,42.224a4.651,4.651,0,0,0-5.024-7.788Z" transform="translate(131.239 73)" fill="#172b4d" fill-rule="evenodd"/>
  </g>
</svg>
