<svg xmlns="http://www.w3.org/2000/svg" width="62.496" height="46.715" viewBox="0 0 62.496 46.715">
  <g id="noun-car-loan-4379467" transform="translate(-0.754 -8.665)">
    <path id="Path_408193" data-name="Path 408193" d="M14.64,34.95h.14a1.25,1.25,0,0,0,.14-2.49A10.7,10.7,0,1,1,26,26a1.254,1.254,0,1,0,2.3,1,13.21,13.21,0,1,0-13.67,8Z" transform="translate(0.086)" fill="#172b4d"/>
    <path id="Path_408195" data-name="Path 408195" d="M63.23,46.54l-.8-4.45a6.36,6.36,0,0,0-6.2-4.86H55.06L51.3,33.46a9.3,9.3,0,0,0-6.56-2.73H28.54a9.31,9.31,0,0,0-4.14,1,9.48,9.48,0,0,0-1.2.72l-6.8,4.82H14.26a17.44,17.44,0,0,0-6.17,1.21A10.52,10.52,0,0,0,1.93,45.2L.81,48.83A1.25,1.25,0,0,0,2,50.45H8.51a5.67,5.67,0,0,0,5.36,4.93h.24a5.64,5.64,0,0,0,5.6-4.94H44.3a5.67,5.67,0,0,0,5.36,4.93h.24a5.64,5.64,0,0,0,5.6-4.94H62a1.25,1.25,0,0,0,1.25-1.25V46.76a1.22,1.22,0,0,0-.02-.22ZM38.75,33.22h6a6.78,6.78,0,0,1,4.79,2l2,2H38.75ZM16.29,52A3.15,3.15,0,0,1,11,49.66v-.3a3.15,3.15,0,0,1,6.25,0,3.05,3.05,0,0,1,0,.39A3.12,3.12,0,0,1,16.29,52Zm20-4.06H19.68a1.18,1.18,0,0,0-.21,0A5.65,5.65,0,0,0,8.74,48a1.18,1.18,0,0,0-.21,0H3.69l.62-2A8,8,0,0,1,9,40.78a14.87,14.87,0,0,1,5.25-1h22Zm0-10.71H20.72l3.92-2.78a6.9,6.9,0,0,1,.88-.53,6.81,6.81,0,0,1,3-.71h7.71ZM52.07,52a3.15,3.15,0,0,1-5.33-2.36v-.3a3.15,3.15,0,0,1,6.25,0,3.051,3.051,0,0,1,0,.39A3.12,3.12,0,0,1,52.07,52Zm8.68-4H55.47a1.18,1.18,0,0,0-.21,0,5.65,5.65,0,0,0-10.74,0,1.179,1.179,0,0,0-.21,0H38.75V39.74H56.24A3.85,3.85,0,0,1,60,42.62l.76,4.26Z" fill="#172b4d"/>
    <g id="Group_142854" data-name="Group 142854" transform="translate(-185.562 -49.802)">
      <g id="Group_142855" data-name="Group 142855" transform="translate(196.562 64.47)">
        <g id="Group_142854-2" data-name="Group 142854" transform="translate(0 0)">
          <path id="Path_408196" data-name="Path 408196" d="M204.247,77.747l-.587-.546q-.706-.655-1.411-1.312l-1.7-1.581q-.737-.687-1.475-1.372c-.239-.222-.474-.45-.717-.667l-.01-.01c.079.19.158.38.235.571v-.461l-.806.806h.94c.322,0,.648.011.97,0a4.24,4.24,0,0,0,2.121-.666,4.313,4.313,0,0,0,1.461-1.581,4.215,4.215,0,0,0-.172-4.266,4.242,4.242,0,0,0-3.58-1.957h-2.147a.839.839,0,0,0-.571.235.81.81,0,0,0,0,1.141.836.836,0,0,0,.571.235h2.038a4.47,4.47,0,0,1,.569.029l-.214-.029a3.473,3.473,0,0,1,.88.239l-.192-.081a3.55,3.55,0,0,1,.771.451l-.163-.126a3.553,3.553,0,0,1,.613.613l-.126-.163a3.55,3.55,0,0,1,.451.771c-.027-.064-.055-.129-.081-.192a3.472,3.472,0,0,1,.239.88l-.029-.214a3.464,3.464,0,0,1,0,.895l.029-.214a3.472,3.472,0,0,1-.239.88c.027-.064.055-.129.081-.192a3.55,3.55,0,0,1-.451.771l.126-.163a3.552,3.552,0,0,1-.613.613l.163-.126a3.55,3.55,0,0,1-.771.451l.192-.081a3.473,3.473,0,0,1-.88.239l.214-.029a6.721,6.721,0,0,1-.864.029h-1.335a.818.818,0,0,0-.806.806c0,.15,0,.3,0,.45a.85.85,0,0,0,.268.611l.31.287,1.349,1.254q.895.832,1.789,1.665l1.612,1.5c.266.248.53.5.8.743l.011.01a.847.847,0,0,0,.571.235.822.822,0,0,0,.571-.235.812.812,0,0,0,.235-.571.82.82,0,0,0-.237-.571Z" transform="translate(-196.562 -64.7)" fill="#172b4d" stroke="#172b4d" stroke-width="0.5"/>
        </g>
      </g>
      <g id="Group_142857" data-name="Group 142857" transform="translate(196.563 64.467)">
        <g id="Group_142856" data-name="Group 142856" transform="translate(0 0)">
          <path id="Path_408197" data-name="Path 408197" d="M197.468,66.081h7.5c.347,0,.693,0,1.038,0h.015a.839.839,0,0,0,.571-.235.809.809,0,0,0,0-1.141.836.836,0,0,0-.571-.235h-7.5c-.347,0-.693,0-1.038,0h-.014a.839.839,0,0,0-.571.235.81.81,0,0,0,0,1.141.839.839,0,0,0,.571.235Z" transform="translate(-196.662 -64.467)" fill="#172b4d" stroke="#172b4d" stroke-width="0.5"/>
        </g>
      </g>
      <g id="Group_142859" data-name="Group 142859" transform="translate(196.563 67.899)">
        <g id="Group_142858" data-name="Group 142858" transform="translate(0 0)">
          <path id="Path_408198" data-name="Path 408198" d="M197.468,278.981h7.5c.347,0,.693,0,1.038,0h.015a.839.839,0,0,0,.571-.235.809.809,0,0,0,0-1.141.836.836,0,0,0-.571-.235h-7.5c-.347,0-.693,0-1.038,0h-.014a.839.839,0,0,0-.571.235.81.81,0,0,0,0,1.141.847.847,0,0,0,.571.235Z" transform="translate(-196.662 -277.367)" fill="#172b4d" stroke="#172b4d" stroke-width="0.5"/>
        </g>
      </g>
    </g>
  </g>
</svg>
