<svg xmlns="http://www.w3.org/2000/svg" width="67.6" height="40.01" viewBox="0 0 67.6 40.01">
  <g id="noun-employees-6108216" transform="translate(-4.202 -23.012)">
    <path id="Path_408209" data-name="Path 408209" d="M18.079,37.059a6.624,6.624,0,1,0-6.624-6.624A6.631,6.631,0,0,0,18.079,37.059Zm0-11.377a4.754,4.754,0,1,1-4.754,4.754A4.759,4.759,0,0,1,18.079,25.683ZM57.924,37.059A6.624,6.624,0,1,0,51.3,30.436,6.631,6.631,0,0,0,57.924,37.059Zm0-11.377a4.754,4.754,0,1,1-4.754,4.754A4.759,4.759,0,0,1,57.924,25.683Zm0,12.229a13.023,13.023,0,0,0-11.156,6.277,16.236,16.236,0,0,0-17.512.039,13.2,13.2,0,0,0-4.215-4.3A13.063,13.063,0,0,0,5,50.989v2.648a.935.935,0,0,0,.935.935H22.1a16.3,16.3,0,0,0-.351,3.365v3.349a.935.935,0,0,0,.935.935H53.4a.935.935,0,0,0,.935-.935V57.937a16.3,16.3,0,0,0-.351-3.365H70.067A.935.935,0,0,0,71,53.638V50.989A13.093,13.093,0,0,0,57.924,37.912ZM6.872,52.7V50.989A11.2,11.2,0,0,1,27.74,45.326,16.346,16.346,0,0,0,22.618,52.7H6.872Zm45.593,7.649H23.62V57.937a14.423,14.423,0,0,1,28.846,0v2.414ZM69.131,52.7H53.467a16.349,16.349,0,0,0-5.178-7.42A11.2,11.2,0,0,1,69.132,50.99V52.7ZM38.043,40.072a8.13,8.13,0,1,0-8.13-8.13A8.139,8.139,0,0,0,38.043,40.072Zm0-14.389a6.259,6.259,0,1,1-6.259,6.259A6.266,6.266,0,0,1,38.043,25.683Z" fill="#172b4d" stroke="#172b4d" stroke-width="1.6"/>
  </g>
</svg>
