<svg xmlns="http://www.w3.org/2000/svg" width="44.027" height="45.694" viewBox="0 0 44.027 45.694">
  <g id="noun-office-location-5960204" transform="translate(-4 -7.671)">
    <g id="Layer_22" data-name="Layer 22" transform="translate(4 2)">
      <path id="Path_408215" data-name="Path 408215" d="M27.172,17A9.172,9.172,0,0,0,18,26.172c0,8.163,7.741,14.07,8.072,14.309a1.834,1.834,0,0,0,2.2,0c.33-.238,8.072-6.145,8.072-14.309A9.172,9.172,0,0,0,27.172,17Zm0,19.592c-1.834-1.743-5.5-5.724-5.5-10.42a5.5,5.5,0,0,1,11.007,0C32.676,30.869,29.007,34.849,27.172,36.592Z" transform="translate(7.683 10.517)" fill="#172b4d"/>
      <path id="Path_408216" data-name="Path 408216" d="M23.834,21h0a1.834,1.834,0,1,0,1.834,1.834A1.834,1.834,0,0,0,23.834,21Z" transform="translate(11.021 13.855)" fill="#172b4d"/>
      <path id="Path_408217" data-name="Path 408217" d="M29.683,44.43H26.014v-8.16a1.742,1.742,0,0,0-1.834-1.632H13.172a1.742,1.742,0,0,0-1.834,1.632v8.16H7.669V5.264H29.683V23.215a1.847,1.847,0,0,0,3.669,0V5.264A3.484,3.484,0,0,0,29.683,2H7.669A3.484,3.484,0,0,0,4,5.264v40.8a1.742,1.742,0,0,0,1.834,1.632H29.683a1.643,1.643,0,1,0,0-3.264Zm-14.676,0V37.9h7.338V44.43Z" transform="translate(-4 3.671)" fill="#172b4d"/>
      <path id="Path_408220" data-name="Path 408220" d="M16.669,10H14.834a1.834,1.834,0,0,0,0,3.669h1.834a1.834,1.834,0,0,0,0-3.669Z" transform="translate(3.51 4.676)" fill="#172b4d"/>
      <path id="Path_408221" data-name="Path 408221" d="M11.669,10H9.834a1.834,1.834,0,0,0,0,3.669h1.834a1.834,1.834,0,0,0,0-3.669Z" transform="translate(-0.662 4.676)" fill="#172b4d"/>
      <path id="Path_408222" data-name="Path 408222" d="M16.669,14H14.834a1.834,1.834,0,0,0,0,3.669h1.834a1.834,1.834,0,0,0,0-3.669Z" transform="translate(3.51 8.014)" fill="#172b4d"/>
      <path id="Path_408223" data-name="Path 408223" d="M11.669,14H9.834a1.834,1.834,0,0,0,0,3.669h1.834a1.834,1.834,0,0,0,0-3.669Z" transform="translate(-0.662 8.014)" fill="#172b4d"/>
      <path id="Path_408224" data-name="Path 408224" d="M16.669,18H14.834a1.834,1.834,0,0,0,0,3.669h1.834a1.834,1.834,0,0,0,0-3.669Z" transform="translate(3.51 11.352)" fill="#172b4d"/>
      <path id="Path_408225" data-name="Path 408225" d="M11.669,18H9.834a1.834,1.834,0,0,0,0,3.669h1.834a1.834,1.834,0,0,0,0-3.669Z" transform="translate(-0.662 11.352)" fill="#172b4d"/>
    </g>
  </g>
</svg>
