<svg xmlns="http://www.w3.org/2000/svg" width="16.029" height="15.996" viewBox="0 0 16.029 15.996">
  <g id="Group_142727" data-name="Group 142727" transform="translate(0.43 -0.1)">
    <g id="Group_142844" data-name="Group 142844" transform="translate(0 0)">
      <path id="Path_83221" data-name="Path 83221" d="M10.653,15.2a4,4,0,0,1-1.13-.163,13.755,13.755,0,0,1-5.773-3.589A13.753,13.753,0,0,1,.162,5.672,4.031,4.031,0,0,1,1.19,1.68L2.381.491A1.708,1.708,0,0,1,4.8.51a1.737,1.737,0,0,1,.177.211L6.4,2.781a1.882,1.882,0,0,1-.581,2.564c-.383.365-.618.605-.622.949s.245,1.03,1.459,2.244S8.546,10.017,8.9,9.994c.344,0,.585-.239.95-.622a1.879,1.879,0,0,1,2.562-.58l2.059,1.429a1.708,1.708,0,0,1,.231,2.593L13.515,14A4.05,4.05,0,0,1,10.653,15.2M3.579,1.018a.671.671,0,0,0-.474.2l-1.19,1.19a3.007,3.007,0,0,0-.77,2.977,12.728,12.728,0,0,0,3.33,5.338,12.734,12.734,0,0,0,5.339,3.331,3.009,3.009,0,0,0,2.977-.77l1.19-1.19a.677.677,0,0,0-.092-1.028L11.855,9.651c-.542-.283-.751-.108-1.26.427a2.348,2.348,0,0,1-1.678.941c-1.4.216-4.972-3.322-4.74-4.738A2.348,2.348,0,0,1,5.116,4.6c.536-.511.711-.72.429-1.264L4.133,1.306a.677.677,0,0,0-.554-.288" transform="translate(0 0.5)" fill="#172b4d" stroke="#172b4d" stroke-width="0.8"/>
    </g>
  </g>
</svg>
