<svg xmlns="http://www.w3.org/2000/svg" width="27.589" height="27.589" viewBox="0 0 27.589 27.589">
  <g id="Group_3561" data-name="Group 3561" transform="translate(0.75 0.75)">
    <path id="Path_4416" data-name="Path 4416" d="M273.161,154.594h0a13.045,13.045,0,0,1-13.045-13.044h0a13.045,13.045,0,0,1,13.045-13.045h0a13.044,13.044,0,0,1,13.044,13.045h0A13.044,13.044,0,0,1,273.161,154.594Z" transform="translate(-260.116 -128.505)" fill="none" stroke="#b7ccef" stroke-width="1.5"/>
    <path id="Path_4417" data-name="Path 4417" d="M269.007,149.311a8.111,8.111,0,0,0,12.478-7.2,5.781,5.781,0,0,0,1.422-1.476,5.689,5.689,0,0,1-1.638.449,2.855,2.855,0,0,0,1.254-1.578,5.722,5.722,0,0,1-1.81.692,2.854,2.854,0,0,0-4.86,2.6,8.093,8.093,0,0,1-5.878-2.98,2.855,2.855,0,0,0,.882,3.808,2.843,2.843,0,0,1-1.292-.357,2.856,2.856,0,0,0,2.287,2.833,2.855,2.855,0,0,1-1.287.048,2.853,2.853,0,0,0,2.664,1.981A5.735,5.735,0,0,1,269.007,149.311Z" transform="translate(-262.913 -131.899)" fill="#b7ccef"/>
  </g>
</svg>
