<svg xmlns="http://www.w3.org/2000/svg" width="22.35" height="22.35" viewBox="0 0 22.35 22.35">
  <g id="Group_3561" data-name="Group 3561" transform="translate(0.75 0.75)">
    <path id="Path_4416" data-name="Path 4416" d="M270.542,149.355h0a10.425,10.425,0,0,1-10.425-10.425h0a10.426,10.426,0,0,1,10.425-10.425h0a10.425,10.425,0,0,1,10.425,10.425h0A10.425,10.425,0,0,1,270.542,149.355Z" transform="translate(-260.116 -128.505)" fill="none" stroke="#172b4d" stroke-width="1.5"/>
    <path id="Path_4417" data-name="Path 4417" d="M269.007,147.3a6.483,6.483,0,0,0,9.972-5.756,4.62,4.62,0,0,0,1.137-1.18,4.546,4.546,0,0,1-1.309.359,2.282,2.282,0,0,0,1-1.261,4.573,4.573,0,0,1-1.447.553,2.281,2.281,0,0,0-3.884,2.079,6.468,6.468,0,0,1-4.7-2.381,2.282,2.282,0,0,0,.705,3.043,2.272,2.272,0,0,1-1.033-.285,2.282,2.282,0,0,0,1.828,2.264,2.282,2.282,0,0,1-1.029.038,2.28,2.28,0,0,0,2.129,1.583A4.584,4.584,0,0,1,269.007,147.3Z" transform="translate(-264.137 -133.385)" fill="#172b4d"/>
  </g>
</svg>
