<svg xmlns="http://www.w3.org/2000/svg" width="27.586" height="27.585" viewBox="0 0 27.586 27.585">
  <g id="Group_3566" data-name="Group 3566" transform="translate(0.75 0.75)">
    <path id="Path_4420" data-name="Path 4420" d="M328.553,316.366h0a13.042,13.042,0,0,1-13.042-13.042h0a13.043,13.043,0,0,1,13.042-13.043h0A13.043,13.043,0,0,1,341.6,303.323h0A13.043,13.043,0,0,1,328.553,316.366Z" transform="translate(-315.511 -290.28)" fill="none" stroke="#b7ccef" stroke-width="1.5"/>
    <g id="Group_3565" data-name="Group 3565" transform="translate(5.94 7.961)">
      <path id="Path_4421" data-name="Path 4421" d="M333.191,300.139a1.781,1.781,0,0,0-1.254-1.261,51.56,51.56,0,0,0-11.077,0,1.781,1.781,0,0,0-1.253,1.261,20.072,20.072,0,0,0,0,6.868,1.783,1.783,0,0,0,1.253,1.262,51.644,51.644,0,0,0,11.077,0,1.782,1.782,0,0,0,1.254-1.262,20.068,20.068,0,0,0,0-6.868Z" transform="translate(-319.311 -298.58)" fill="#b7ccef"/>
      <path id="Path_4422" data-name="Path 4422" d="M331.426,309v-4.215l3.705,2.108Z" transform="translate(-325.788 -301.896)" fill="#172b4d"/>
    </g>
  </g>
</svg>
