<svg xmlns="http://www.w3.org/2000/svg" width="22.348" height="22.348" viewBox="0 0 22.348 22.348">
  <g id="Group_3566" data-name="Group 3566" transform="translate(0.75 0.75)">
    <path id="Path_4420" data-name="Path 4420" d="M325.934,311.128h0A10.423,10.423,0,0,1,315.511,300.7h0a10.424,10.424,0,0,1,10.424-10.424h0A10.424,10.424,0,0,1,336.359,300.7h0A10.424,10.424,0,0,1,325.934,311.128Z" transform="translate(-315.511 -290.28)" fill="none" stroke="#172b4d" stroke-width="1.5"/>
    <g id="Group_3565" data-name="Group 3565" transform="translate(4.747 6.363)">
      <path id="Path_4421" data-name="Path 4421" d="M330.4,299.826a1.423,1.423,0,0,0-1-1.008,41.208,41.208,0,0,0-8.852,0,1.424,1.424,0,0,0-1,1.008,16.041,16.041,0,0,0,0,5.489,1.425,1.425,0,0,0,1,1.008,41.277,41.277,0,0,0,8.852,0,1.425,1.425,0,0,0,1-1.008,16.039,16.039,0,0,0,0-5.489Z" transform="translate(-319.311 -298.58)" fill="#172b4d"/>
      <path id="Path_4422" data-name="Path 4422" d="M331.426,308.151v-3.369l2.961,1.685Z" transform="translate(-326.92 -302.475)" fill="#fff"/>
    </g>
  </g>
</svg>
